<svg xmlns="http://www.w3.org/2000/svg" viewBox="0 0 64 64" role="img" aria-label="Cartoon cat head icon">
  <defs>
    <linearGradient id="cat-face" x1="0%" x2="100%" y1="0%" y2="100%">
      <stop offset="0%" stop-color="#ffd889" />
      <stop offset="100%" stop-color="#ffad61" />
    </linearGradient>
  </defs>
  <rect width="64" height="64" rx="18" fill="#fff6ea" />
  <path
    fill="url(#cat-face)"
    d="M15 25 18 10c.4-2 2.8-2.9 4.4-1.6L32 17l9.6-8.6c1.6-1.3 4-.4 4.4 1.6L49 25c3.9 4.1 6 9.1 6 14.2C55 50.1 44.7 58 32 58S9 50.1 9 39.2C9 34.1 11.1 29.1 15 25Z"
  />
  <path
    fill="#f58d68"
    d="m20.5 21.4 1.7-8.2 6.2 5.6Zm23 0 4.1-2.6 1.7-5.6-6.8 5.6ZM32 39.5c4.6 0 8.9 2.1 11.7 5.7-2.1 5.1-6.8 8.2-11.7 8.2s-9.6-3.1-11.7-8.2c2.8-3.6 7.1-5.7 11.7-5.7Z"
  />
  <ellipse cx="24" cy="31.5" rx="3.2" ry="4.1" fill="#3f2a25" />
  <ellipse cx="40" cy="31.5" rx="3.2" ry="4.1" fill="#3f2a25" />
  <path
    fill="#ff7b7b"
    d="M32 36.4c1.8 0 3.3 1.3 3.3 2.9 0 1.2-.8 2.1-2 2.6l-1.3 1.9-1.3-1.9c-1.2-.5-2-1.4-2-2.6 0-1.6 1.5-2.9 3.3-2.9Z"
  />
  <path
    fill="none"
    stroke="#3f2a25"
    stroke-linecap="round"
    stroke-width="1.8"
    d="M18.5 38.5h8.8m-8 4.2h7.2m18-4.2h-8.8m8 4.2h-7.2"
  />
  <path
    fill="none"
    stroke="#3f2a25"
    stroke-linecap="round"
    stroke-width="2.2"
    d="M29.3 43.7c.8.9 1.7 1.4 2.7 1.4s1.9-.5 2.7-1.4"
  />
</svg>
